<svg xmlns="http://www.w3.org/2000/svg" xmlns:xlink="http://www.w3.org/1999/xlink" width="500" zoomAndPan="magnify" viewBox="0 0 375 374.999991" height="500" preserveAspectRatio="xMidYMid meet" version="1.2"><defs><clipPath id="1ae0fb4d1d"><path d="M 39.894531 42.039062 L 255 42.039062 L 255 333 L 39.894531 333 Z M 39.894531 42.039062 "/></clipPath></defs><g id="107094125f"><path style=" stroke:none;fill-rule:nonzero;fill:#1b263b;fill-opacity:1;" d="M 42.847656 99.496094 C 44.628906 98.675781 46.5 98.261719 48.460938 98.253906 L 77.632812 98.253906 C 78.230469 98.253906 78.832031 98.222656 79.429688 98.164062 C 80.027344 98.105469 80.621094 98.015625 81.210938 97.898438 C 81.800781 97.78125 82.382812 97.636719 82.957031 97.460938 C 83.53125 97.285156 84.097656 97.082031 84.652344 96.851562 C 85.207031 96.621094 85.75 96.363281 86.28125 96.082031 C 86.8125 95.796875 87.324219 95.488281 87.824219 95.15625 C 88.324219 94.820312 88.808594 94.460938 89.273438 94.082031 C 89.738281 93.699219 90.179688 93.296875 90.605469 92.871094 C 91.03125 92.445312 91.433594 92 91.816406 91.539062 C 92.199219 91.074219 92.554688 90.589844 92.890625 90.089844 C 93.222656 89.589844 93.53125 89.078125 93.816406 88.546875 C 94.097656 88.015625 94.355469 87.472656 94.585938 86.917969 C 94.816406 86.363281 95.019531 85.796875 95.195312 85.222656 C 95.371094 84.648438 95.515625 84.066406 95.632812 83.476562 C 95.75 82.886719 95.839844 82.292969 95.898438 81.695312 C 95.960938 81.097656 95.988281 80.496094 95.988281 79.898438 L 95.988281 50.726562 C 95.996094 48.765625 96.40625 46.894531 97.226562 45.117188 C 96.121094 45.816406 95.097656 46.625 94.164062 47.542969 L 45.214844 96.488281 C 44.320312 97.40625 43.53125 98.410156 42.847656 99.496094 Z M 42.847656 99.496094 "/><path style=" stroke:none;fill-rule:nonzero;fill:#1b263b;fill-opacity:1;" d="M 259.179688 83.953125 L 259.179688 247.15625 L 328.164062 178.175781 C 328.578125 177.761719 328.96875 177.328125 329.339844 176.878906 C 329.707031 176.425781 330.054688 175.957031 330.378906 175.46875 C 330.703125 174.984375 331.003906 174.484375 331.277344 173.96875 C 331.554688 173.453125 331.804688 172.925781 332.027344 172.382812 C 332.25 171.84375 332.445312 171.292969 332.613281 170.734375 C 332.785156 170.175781 332.925781 169.609375 333.039062 169.035156 C 333.152344 168.464844 333.238281 167.886719 333.296875 167.304688 C 333.351562 166.722656 333.382812 166.140625 333.382812 165.554688 C 333.382812 164.972656 333.351562 164.386719 333.296875 163.804688 C 333.238281 163.226562 333.152344 162.648438 333.039062 162.074219 C 332.925781 161.5 332.785156 160.933594 332.613281 160.375 C 332.445312 159.816406 332.25 159.265625 332.027344 158.726562 C 331.804688 158.1875 331.554688 157.660156 331.277344 157.144531 C 331.003906 156.628906 330.703125 156.125 330.378906 155.640625 C 330.054688 155.152344 329.707031 154.683594 329.339844 154.234375 C 328.96875 153.78125 328.578125 153.347656 328.164062 152.933594 Z M 259.179688 83.953125 "/><g clip-rule="nonzero" clip-path="url(#1ae0fb4d1d)"><path style=" stroke:none;fill-rule:nonzero;fill:#1b263b;fill-opacity:1;" d="M 236.230469 42.160156 L 109.65625 42.160156 C 109.09375 42.160156 108.539062 42.214844 107.988281 42.324219 C 107.4375 42.4375 106.898438 42.597656 106.382812 42.8125 C 105.863281 43.03125 105.367188 43.292969 104.902344 43.605469 C 104.433594 43.917969 104 44.273438 103.601562 44.671875 C 103.207031 45.070312 102.851562 45.5 102.539062 45.96875 C 102.226562 46.4375 101.960938 46.929688 101.746094 47.449219 C 101.53125 47.96875 101.367188 48.503906 101.257812 49.054688 C 101.144531 49.605469 101.089844 50.164062 101.089844 50.726562 L 101.089844 79.898438 C 101.089844 80.664062 101.050781 81.429688 100.972656 82.195312 C 100.898438 82.960938 100.785156 83.71875 100.632812 84.472656 C 100.484375 85.222656 100.296875 85.96875 100.074219 86.703125 C 99.851562 87.4375 99.589844 88.160156 99.296875 88.871094 C 99.003906 89.578125 98.675781 90.273438 98.3125 90.949219 C 97.949219 91.628906 97.554688 92.285156 97.128906 92.921875 C 96.703125 93.5625 96.246094 94.179688 95.757812 94.773438 C 95.269531 95.363281 94.753906 95.933594 94.210938 96.476562 C 93.667969 97.019531 93.101562 97.535156 92.507812 98.023438 C 91.914062 98.507812 91.296875 98.964844 90.65625 99.394531 C 90.019531 99.820312 89.363281 100.214844 88.683594 100.578125 C 88.007812 100.941406 87.3125 101.269531 86.605469 101.5625 C 85.894531 101.855469 85.171875 102.117188 84.4375 102.339844 C 83.703125 102.5625 82.960938 102.75 82.207031 102.898438 C 81.453125 103.050781 80.695312 103.164062 79.929688 103.238281 C 79.164062 103.316406 78.398438 103.355469 77.632812 103.355469 L 48.460938 103.355469 C 47.898438 103.355469 47.34375 103.410156 46.792969 103.519531 C 46.238281 103.632812 45.703125 103.792969 45.183594 104.011719 C 44.664062 104.226562 44.171875 104.488281 43.703125 104.800781 C 43.238281 105.113281 42.804688 105.46875 42.40625 105.867188 C 42.007812 106.265625 41.652344 106.695312 41.339844 107.164062 C 41.027344 107.632812 40.765625 108.125 40.550781 108.644531 C 40.332031 109.164062 40.171875 109.699219 40.058594 110.25 C 39.949219 110.800781 39.894531 111.359375 39.894531 111.921875 L 39.894531 314.992188 C 39.894531 315.574219 39.921875 316.160156 39.980469 316.738281 C 40.039062 317.320312 40.125 317.898438 40.238281 318.472656 C 40.355469 319.046875 40.496094 319.609375 40.667969 320.171875 C 40.835938 320.730469 41.035156 321.277344 41.257812 321.820312 C 41.480469 322.359375 41.730469 322.886719 42.007812 323.402344 C 42.285156 323.917969 42.582031 324.417969 42.910156 324.902344 C 43.234375 325.386719 43.582031 325.855469 43.953125 326.308594 C 44.324219 326.761719 44.714844 327.191406 45.128906 327.605469 C 45.542969 328.019531 45.972656 328.410156 46.425781 328.78125 C 46.875 329.152344 47.34375 329.5 47.832031 329.824219 C 48.316406 330.148438 48.816406 330.449219 49.332031 330.726562 C 49.847656 331 50.375 331.25 50.914062 331.476562 C 51.457031 331.699219 52.003906 331.898438 52.5625 332.066406 C 53.121094 332.238281 53.6875 332.378906 54.261719 332.492188 C 54.835938 332.609375 55.414062 332.695312 55.992188 332.753906 C 56.574219 332.808594 57.15625 332.839844 57.742188 332.839844 L 236.230469 332.839844 C 236.816406 332.839844 237.398438 332.808594 237.980469 332.753906 C 238.5625 332.695312 239.136719 332.609375 239.710938 332.492188 C 240.285156 332.378906 240.851562 332.238281 241.410156 332.066406 C 241.96875 331.898438 242.519531 331.699219 243.058594 331.476562 C 243.597656 331.25 244.125 331.003906 244.640625 330.726562 C 245.15625 330.449219 245.65625 330.152344 246.140625 329.824219 C 246.628906 329.5 247.097656 329.152344 247.546875 328.78125 C 248 328.410156 248.433594 328.019531 248.847656 327.605469 C 249.257812 327.191406 249.652344 326.761719 250.023438 326.308594 C 250.390625 325.855469 250.742188 325.386719 251.066406 324.902344 C 251.390625 324.417969 251.691406 323.917969 251.964844 323.402344 C 252.242188 322.886719 252.492188 322.359375 252.714844 321.820312 C 252.9375 321.277344 253.136719 320.730469 253.304688 320.171875 C 253.476562 319.609375 253.617188 319.046875 253.734375 318.472656 C 253.847656 317.898438 253.933594 317.320312 253.992188 316.738281 C 254.050781 316.160156 254.078125 315.574219 254.078125 314.992188 L 254.078125 60.007812 C 254.078125 59.421875 254.050781 58.839844 253.992188 58.257812 C 253.933594 57.675781 253.847656 57.101562 253.734375 56.527344 C 253.617188 55.953125 253.476562 55.386719 253.304688 54.828125 C 253.136719 54.269531 252.9375 53.71875 252.714844 53.179688 C 252.492188 52.640625 252.242188 52.113281 251.964844 51.597656 C 251.691406 51.082031 251.390625 50.582031 251.066406 50.097656 C 250.738281 49.609375 250.390625 49.140625 250.023438 48.691406 C 249.652344 48.238281 249.257812 47.804688 248.84375 47.394531 C 248.433594 46.980469 248 46.589844 247.546875 46.21875 C 247.097656 45.847656 246.628906 45.5 246.140625 45.175781 C 245.65625 44.847656 245.15625 44.546875 244.640625 44.273438 C 244.125 43.996094 243.597656 43.746094 243.058594 43.523438 C 242.519531 43.300781 241.96875 43.101562 241.410156 42.933594 C 240.851562 42.761719 240.285156 42.621094 239.710938 42.503906 C 239.136719 42.390625 238.5625 42.304688 237.980469 42.246094 C 237.398438 42.1875 236.816406 42.160156 236.230469 42.160156 Z M 215.832031 266.542969 L 73.042969 266.542969 C 72.703125 266.542969 72.378906 266.480469 72.066406 266.351562 C 71.753906 266.222656 71.476562 266.035156 71.238281 265.796875 C 71 265.558594 70.816406 265.28125 70.6875 264.96875 C 70.554688 264.65625 70.492188 264.332031 70.492188 263.996094 C 70.492188 263.65625 70.554688 263.332031 70.6875 263.019531 C 70.816406 262.707031 71 262.429688 71.238281 262.191406 C 71.476562 261.953125 71.753906 261.769531 72.066406 261.640625 C 72.378906 261.507812 72.703125 261.445312 73.042969 261.445312 L 215.832031 261.445312 C 216.171875 261.445312 216.496094 261.507812 216.808594 261.640625 C 217.121094 261.769531 217.394531 261.953125 217.636719 262.191406 C 217.875 262.429688 218.058594 262.707031 218.1875 263.019531 C 218.316406 263.332031 218.382812 263.65625 218.382812 263.996094 C 218.382812 264.332031 218.316406 264.65625 218.1875 264.96875 C 218.058594 265.28125 217.875 265.558594 217.636719 265.796875 C 217.394531 266.035156 217.121094 266.222656 216.808594 266.351562 C 216.496094 266.480469 216.171875 266.542969 215.832031 266.542969 Z M 215.832031 220.648438 L 73.042969 220.648438 C 72.703125 220.648438 72.378906 220.582031 72.066406 220.453125 C 71.753906 220.324219 71.476562 220.140625 71.238281 219.902344 C 71 219.660156 70.816406 219.386719 70.6875 219.074219 C 70.554688 218.761719 70.492188 218.4375 70.492188 218.097656 C 70.492188 217.757812 70.554688 217.433594 70.6875 217.121094 C 70.816406 216.808594 71 216.535156 71.238281 216.292969 C 71.476562 216.054688 71.753906 215.871094 72.066406 215.742188 C 72.378906 215.613281 72.703125 215.546875 73.042969 215.546875 L 215.832031 215.546875 C 216.171875 215.546875 216.496094 215.613281 216.808594 215.742188 C 217.121094 215.871094 217.394531 216.054688 217.636719 216.292969 C 217.875 216.535156 218.058594 216.808594 218.1875 217.121094 C 218.316406 217.433594 218.382812 217.757812 218.382812 218.097656 C 218.382812 218.4375 218.316406 218.761719 218.1875 219.074219 C 218.058594 219.386719 217.875 219.660156 217.636719 219.902344 C 217.394531 220.140625 217.121094 220.324219 216.808594 220.453125 C 216.496094 220.582031 216.171875 220.648438 215.832031 220.648438 Z M 215.832031 174.75 L 73.042969 174.75 C 72.703125 174.75 72.378906 174.6875 72.066406 174.554688 C 71.753906 174.425781 71.476562 174.242188 71.238281 174.003906 C 71 173.765625 70.816406 173.488281 70.6875 173.175781 C 70.554688 172.863281 70.492188 172.539062 70.492188 172.199219 C 70.492188 171.863281 70.554688 171.539062 70.6875 171.226562 C 70.816406 170.914062 71 170.636719 71.238281 170.398438 C 71.476562 170.160156 71.753906 169.972656 72.066406 169.84375 C 72.378906 169.714844 72.703125 169.652344 73.042969 169.652344 L 215.832031 169.652344 C 216.171875 169.652344 216.496094 169.714844 216.808594 169.84375 C 217.121094 169.972656 217.394531 170.160156 217.636719 170.398438 C 217.875 170.636719 218.058594 170.914062 218.1875 171.226562 C 218.316406 171.539062 218.382812 171.863281 218.382812 172.199219 C 218.382812 172.539062 218.316406 172.863281 218.1875 173.175781 C 218.058594 173.488281 217.875 173.765625 217.636719 174.003906 C 217.394531 174.242188 217.121094 174.425781 216.808594 174.554688 C 216.496094 174.6875 216.171875 174.75 215.832031 174.75 Z M 215.832031 133.953125 L 103.640625 133.953125 C 103.300781 133.953125 102.976562 133.886719 102.664062 133.757812 C 102.351562 133.628906 102.074219 133.445312 101.835938 133.207031 C 101.597656 132.96875 101.414062 132.691406 101.285156 132.378906 C 101.15625 132.066406 101.089844 131.742188 101.089844 131.402344 C 101.089844 131.066406 101.15625 130.738281 101.285156 130.425781 C 101.414062 130.113281 101.597656 129.839844 101.835938 129.601562 C 102.074219 129.359375 102.351562 129.175781 102.664062 129.046875 C 102.976562 128.917969 103.300781 128.851562 103.640625 128.851562 L 215.832031 128.851562 C 216.171875 128.851562 216.496094 128.917969 216.808594 129.046875 C 217.121094 129.175781 217.394531 129.359375 217.636719 129.601562 C 217.875 129.839844 218.058594 130.113281 218.1875 130.425781 C 218.316406 130.738281 218.382812 131.066406 218.382812 131.402344 C 218.382812 131.742188 218.316406 132.066406 218.1875 132.378906 C 218.058594 132.691406 217.875 132.96875 217.636719 133.207031 C 217.394531 133.445312 217.121094 133.628906 216.808594 133.757812 C 216.496094 133.886719 216.171875 133.953125 215.832031 133.953125 Z M 215.832031 133.953125 "/></g></g></svg>