<svg xmlns="http://www.w3.org/2000/svg" xmlns:xlink="http://www.w3.org/1999/xlink" width="500" zoomAndPan="magnify" viewBox="0 0 375 374.999991" height="500" preserveAspectRatio="xMidYMid meet" version="1.2"><defs><clipPath id="2cecf28040"><path d="M 45 26.117188 L 329.898438 26.117188 L 329.898438 348.617188 L 45 348.617188 Z M 45 26.117188 "/></clipPath></defs><g id="91dffd60ab"><g clip-rule="nonzero" clip-path="url(#2cecf28040)"><path style=" stroke:none;fill-rule:nonzero;fill:#1b263b;fill-opacity:1;" d="M 178.261719 81.925781 C 195.96875 93.195312 208.308594 111.976562 210.457031 133.4375 C 217.433594 136.660156 225.480469 138.804688 234.066406 138.804688 C 265.191406 138.804688 290.410156 113.585938 290.410156 82.460938 C 290.410156 51.339844 265.191406 26.117188 234.066406 26.117188 C 203.480469 26.65625 178.261719 51.339844 178.261719 81.925781 Z M 141.234375 196.757812 C 172.359375 196.757812 197.578125 171.539062 197.578125 140.414062 C 197.578125 109.292969 172.359375 84.070312 141.234375 84.070312 C 110.113281 84.070312 84.890625 109.292969 84.890625 140.414062 C 84.890625 171.539062 110.113281 196.757812 141.234375 196.757812 Z M 164.84375 200.515625 L 117.085938 200.515625 C 77.378906 200.515625 45.183594 232.710938 45.183594 272.421875 L 45.183594 331.984375 L 48.9375 333.058594 C 86.5 344.863281 119.769531 348.617188 146.601562 348.617188 C 199.1875 348.617188 229.773438 333.59375 231.921875 332.519531 L 235.675781 330.375 L 236.214844 330.375 L 236.214844 272.421875 C 236.75 232.710938 204.554688 200.515625 164.84375 200.515625 Z M 257.679688 142.5625 L 210.457031 142.5625 C 209.921875 161.34375 201.871094 178.515625 188.992188 190.855469 C 224.410156 201.589844 250.164062 233.785156 250.164062 272.421875 L 250.164062 290.128906 C 296.851562 288.519531 323.679688 275.101562 325.289062 274.566406 L 329.046875 272.421875 L 329.582031 272.421875 L 329.582031 214.46875 C 329.582031 174.757812 297.386719 142.5625 257.679688 142.5625 Z M 257.679688 142.5625 "/></g></g></svg>