<svg xmlns="http://www.w3.org/2000/svg" xmlns:xlink="http://www.w3.org/1999/xlink" width="500" zoomAndPan="magnify" viewBox="0 0 375 374.999991" height="500" preserveAspectRatio="xMidYMid meet" version="1.2"><defs><clipPath id="3bd4671389"><path d="M 86 128 L 121 128 L 121 303.261719 L 86 303.261719 Z M 86 128 "/></clipPath><clipPath id="3f8b81926c"><path d="M 137 152 L 172 152 L 172 303.261719 L 137 303.261719 Z M 137 152 "/></clipPath><clipPath id="e64142abb7"><path d="M 188 152 L 223 152 L 223 303.261719 L 188 303.261719 Z M 188 152 "/></clipPath><clipPath id="1a5ad15f41"><path d="M 35 155 L 70 155 L 70 303.261719 L 35 303.261719 Z M 35 155 "/></clipPath><clipPath id="007be9ae62"><path d="M 238 233 L 273 233 L 273 303.261719 L 238 303.261719 Z M 238 233 "/></clipPath><clipPath id="a1bbd5c404"><path d="M 21 71.511719 L 287 71.511719 L 287 155 L 21 155 Z M 21 71.511719 "/></clipPath></defs><g id="b3802559d6"><g clip-rule="nonzero" clip-path="url(#3bd4671389)"><path style=" stroke:none;fill-rule:evenodd;fill:#1b263b;fill-opacity:1;" d="M 120.589844 128.917969 L 86.472656 146.457031 L 86.496094 303.34375 L 120.613281 303.34375 Z M 120.589844 128.917969 "/></g><g clip-rule="nonzero" clip-path="url(#3f8b81926c)"><path style=" stroke:none;fill-rule:evenodd;fill:#1b263b;fill-opacity:1;" d="M 137.261719 152.335938 L 137.285156 303.34375 L 171.398438 303.34375 L 171.378906 169.855469 Z M 137.261719 152.335938 "/></g><g clip-rule="nonzero" clip-path="url(#e64142abb7)"><path style=" stroke:none;fill-rule:evenodd;fill:#1b263b;fill-opacity:1;" d="M 222.160156 152.453125 L 188.019531 169.855469 L 188.070312 303.371094 L 222.1875 303.34375 Z M 222.160156 152.453125 "/></g><g clip-rule="nonzero" clip-path="url(#1a5ad15f41)"><path style=" stroke:none;fill-rule:evenodd;fill:#1b263b;fill-opacity:1;" d="M 69.800781 155.035156 L 35.714844 172.574219 L 35.734375 303.34375 L 69.875 303.34375 Z M 69.800781 155.035156 "/></g><g clip-rule="nonzero" clip-path="url(#007be9ae62)"><path style=" stroke:none;fill-rule:evenodd;fill:#1b263b;fill-opacity:1;" d="M 238.839844 233.070312 L 238.839844 303.34375 L 272.976562 303.34375 L 272.953125 251.761719 C 271.820312 251.574219 270.691406 251.332031 269.554688 251.019531 L 269.53125 251.019531 C 257.914062 247.910156 247.292969 241.578125 238.839844 233.070312 Z M 238.839844 233.070312 "/></g><path style=" stroke:none;fill-rule:nonzero;fill:#1b263b;fill-opacity:1;" d="M 286.992188 149.925781 C 290.269531 149.875 293.546875 150.316406 296.726562 151.152344 C 316.046875 156.332031 327.519531 176.210938 322.339844 195.558594 C 317.15625 214.875 297.28125 226.371094 277.929688 221.191406 C 258.613281 215.988281 247.117188 196.105469 252.300781 176.789062 C 254.832031 167.320312 261.09375 159.269531 269.652344 154.496094 C 274.949219 151.542969 280.925781 149.972656 286.992188 149.925781 Z M 289.355469 131.039062 C 287.984375 130.988281 286.613281 130.988281 285.210938 131.0625 C 276.539062 131.371094 268.058594 133.730469 260.46875 137.976562 C 247.4375 145.226562 237.917969 157.464844 234.042969 171.875 C 226.164062 201.3125 243.632812 231.570312 273.070312 239.453125 C 283.117188 242.105469 293.71875 241.859375 303.640625 238.773438 L 304.75 240.96875 C 307.671875 247.355469 315.300781 249.019531 321.496094 245.429688 C 327.691406 241.859375 330.078125 234.398438 326.023438 228.683594 L 324.71875 226.703125 C 332.386719 219.621094 337.898438 210.515625 340.628906 200.449219 C 348.507812 171.03125 331.039062 140.773438 301.621094 132.890625 C 297.59375 131.8125 293.5 131.183594 289.355469 131.039062 Z M 289.355469 131.039062 "/><path style=" stroke:none;fill-rule:nonzero;fill:#1b263b;fill-opacity:1;" d="M 330.410156 245.019531 C 328.675781 246.851562 326.558594 248.535156 324.101562 249.957031 C 321.640625 251.378906 319.136719 252.367188 316.65625 252.941406 L 329.425781 280.988281 C 332.898438 288.050781 339.691406 287.925781 344.488281 285.15625 C 349.277344 282.386719 352.792969 276.550781 348.433594 270.054688 Z M 330.410156 245.019531 "/><g clip-rule="nonzero" clip-path="url(#a1bbd5c404)"><path style=" stroke:none;fill-rule:evenodd;fill:#1b263b;fill-opacity:1;" d="M 179.691406 121.691406 C 185.570312 121.691406 190.21875 126.316406 190.21875 132.195312 C 190.21875 138.074219 185.570312 142.703125 179.691406 142.703125 C 173.808594 142.703125 169.160156 138.074219 169.160156 132.195312 C 169.160156 126.316406 173.808594 121.691406 179.691406 121.691406 Z M 43.902344 121.691406 C 49.78125 121.691406 54.429688 126.316406 54.429688 132.195312 C 54.429688 138.074219 49.78125 142.703125 43.902344 142.703125 C 38.019531 142.703125 33.371094 138.074219 33.371094 132.195312 C 33.371094 126.316406 38.027344 121.691406 43.902344 121.691406 Z M 264.761719 83.214844 C 270.640625 83.214844 275.265625 87.863281 275.265625 93.742188 C 275.265625 99.59375 270.640625 104.246094 264.761719 104.246094 C 258.882812 104.246094 254.234375 99.597656 254.234375 93.742188 C 254.234375 87.867188 258.882812 83.214844 264.761719 83.214844 Z M 117.535156 83.214844 C 123.414062 83.214844 128.039062 87.863281 128.039062 93.742188 C 128.039062 99.59375 123.414062 104.246094 117.535156 104.246094 C 111.652344 104.246094 107.003906 99.597656 107.003906 93.742188 C 107.003906 87.867188 111.652344 83.214844 117.535156 83.214844 Z M 117.535156 71.722656 C 105.4375 71.722656 95.464844 81.621094 95.464844 93.742188 C 95.464844 94.464844 95.605469 95.183594 95.679688 95.90625 L 57.878906 115.375 C 54.074219 112.195312 49.226562 110.171875 43.90625 110.171875 C 31.808594 110.171875 21.863281 120.09375 21.863281 132.191406 C 21.863281 144.289062 31.8125 154.234375 43.90625 154.234375 C 55.996094 154.234375 65.90625 144.285156 65.90625 132.191406 C 65.90625 129.613281 65.375 127.183594 64.554688 124.867188 L 99.84375 106.722656 C 103.898438 112.167969 110.304688 115.785156 117.535156 115.785156 C 124.78125 115.785156 131.210938 112.144531 135.242188 106.65625 L 160.417969 121.835938 C 158.730469 124.9375 157.667969 128.433594 157.667969 132.191406 C 157.667969 144.289062 167.597656 154.234375 179.691406 154.234375 C 191.78125 154.234375 201.730469 144.285156 201.730469 132.191406 C 201.730469 131.808594 201.632812 131.445312 201.632812 131.0625 L 247.628906 107.378906 C 251.679688 112.433594 257.824219 115.785156 264.761719 115.785156 C 276.859375 115.785156 286.804688 105.835938 286.804688 93.742188 C 286.804688 81.621094 276.851562 71.722656 264.761719 71.722656 C 252.664062 71.722656 242.738281 81.621094 242.738281 93.742188 C 242.738281 94.777344 242.9375 95.792969 243.074219 96.800781 L 198.003906 120.003906 C 194.023438 114.101562 187.277344 110.171875 179.691406 110.171875 C 175.617188 110.171875 171.832031 111.375 168.554688 113.332031 L 139.335938 95.667969 C 139.386719 95.019531 139.523438 94.390625 139.523438 93.742188 C 139.523438 81.621094 129.625 71.722656 117.535156 71.722656 Z M 117.535156 71.722656 "/></g></g></svg>