<svg xmlns="http://www.w3.org/2000/svg" xmlns:xlink="http://www.w3.org/1999/xlink" width="500" zoomAndPan="magnify" viewBox="0 0 375 374.999991" height="500" preserveAspectRatio="xMidYMid meet" version="1.2"><defs><clipPath id="76f759c480"><path d="M 43 46 L 337.5 46 L 337.5 337.5 L 43 337.5 Z M 43 46 "/></clipPath></defs><g id="39265ad4ce"><g clip-rule="nonzero" clip-path="url(#76f759c480)"><path style=" stroke:none;fill-rule:nonzero;fill:#1b263b;fill-opacity:1;" d="M 70.820312 279.015625 C 69.363281 277.539062 67.953125 276.011719 66.59375 274.441406 C 65.234375 272.871094 63.929688 271.257812 62.675781 269.605469 C 61.417969 267.949219 60.21875 266.257812 59.074219 264.523438 C 57.929688 262.792969 56.839844 261.027344 55.808594 259.222656 C 54.777344 257.421875 53.804688 255.585938 52.890625 253.722656 C 51.976562 251.855469 51.125 249.964844 50.335938 248.042969 C 49.542969 246.125 48.816406 244.179688 48.152344 242.210938 C 47.484375 240.246094 46.882812 238.257812 46.347656 236.253906 C 45.808594 234.246094 45.335938 232.226562 44.929688 230.191406 C 44.523438 228.152344 44.183594 226.105469 43.910156 224.046875 C 43.632812 221.988281 43.425781 219.921875 43.285156 217.851562 C 43.144531 215.78125 43.070312 213.707031 43.0625 211.628906 C 43.054688 209.550781 43.113281 207.476562 43.242188 205.40625 C 43.367188 203.332031 43.5625 201.265625 43.820312 199.207031 C 44.082031 197.144531 44.40625 195.09375 44.800781 193.054688 C 45.191406 191.015625 45.648438 188.992188 46.171875 186.980469 C 46.695312 184.972656 47.28125 182.980469 47.933594 181.011719 C 48.585938 179.039062 49.300781 177.089844 50.074219 175.164062 C 50.851562 173.238281 51.691406 171.339844 52.589844 169.46875 C 53.492188 167.597656 54.449219 165.753906 55.46875 163.945312 C 56.488281 162.136719 57.5625 160.359375 58.695312 158.621094 C 59.828125 156.878906 61.019531 155.179688 62.261719 153.515625 C 63.503906 151.851562 64.800781 150.230469 66.148438 148.648438 C 67.496094 147.070312 68.890625 145.535156 70.339844 144.046875 C 71.785156 142.554688 73.277344 141.113281 74.820312 139.722656 C 76.359375 138.328125 77.941406 136.984375 79.566406 135.695312 C 81.195312 134.402344 82.859375 133.164062 84.566406 131.980469 C 86.273438 130.796875 88.015625 129.671875 89.796875 128.601562 C 91.574219 127.527344 93.386719 126.515625 95.230469 125.5625 C 97.074219 124.609375 98.949219 123.714844 100.851562 122.882812 C 102.753906 122.046875 104.679688 121.277344 106.632812 120.566406 C 108.585938 119.859375 110.558594 119.214844 112.550781 118.632812 C 111.933594 120.730469 111.375 122.84375 110.875 124.972656 C 110.371094 127.097656 109.925781 129.238281 109.535156 131.390625 C 109.148438 133.542969 108.816406 135.703125 108.542969 137.871094 C 108.269531 140.042969 108.054688 142.21875 107.894531 144.398438 C 107.738281 146.578125 107.636719 148.761719 107.597656 150.949219 C 107.554688 153.136719 107.574219 155.320312 107.648438 157.507812 C 107.722656 159.691406 107.855469 161.875 108.046875 164.050781 C 108.238281 166.230469 108.488281 168.402344 108.796875 170.566406 C 109.105469 172.730469 109.46875 174.886719 109.890625 177.03125 C 110.3125 179.175781 110.792969 181.308594 111.328125 183.429688 C 111.863281 185.550781 112.457031 187.652344 113.101562 189.742188 C 113.75 191.832031 114.453125 193.898438 115.210938 195.949219 C 115.972656 198 116.785156 200.03125 117.648438 202.039062 C 118.515625 204.046875 119.4375 206.03125 120.40625 207.988281 C 121.378906 209.945312 122.402344 211.878906 123.480469 213.78125 C 124.554688 215.6875 125.679688 217.558594 126.855469 219.402344 C 128.027344 221.25 129.25 223.058594 130.523438 224.839844 C 131.796875 226.617188 133.113281 228.359375 134.476562 230.070312 C 135.84375 231.777344 137.25 233.449219 138.703125 235.082031 C 140.15625 236.714844 141.652344 238.308594 143.191406 239.863281 C 144.730469 241.417969 146.308594 242.929688 147.929688 244.398438 C 149.546875 245.867188 151.203125 247.292969 152.898438 248.675781 C 154.59375 250.058594 156.324219 251.390625 158.089844 252.679688 C 159.859375 253.96875 161.65625 255.210938 163.488281 256.40625 C 165.320312 257.597656 167.183594 258.742188 169.078125 259.835938 C 170.972656 260.929688 172.890625 261.972656 174.839844 262.964844 C 176.789062 263.957031 178.761719 264.894531 180.761719 265.78125 C 182.761719 266.667969 184.78125 267.5 186.824219 268.277344 C 188.867188 269.054688 190.933594 269.78125 193.011719 270.449219 C 195.09375 271.117188 197.195312 271.730469 199.308594 272.285156 C 201.421875 272.84375 203.550781 273.34375 205.691406 273.785156 C 207.832031 274.230469 209.984375 274.617188 212.144531 274.945312 C 210.589844 276.71875 208.972656 278.433594 207.292969 280.089844 C 205.609375 281.746094 203.871094 283.339844 202.074219 284.867188 C 200.273438 286.394531 198.421875 287.855469 196.519531 289.25 C 194.613281 290.640625 192.660156 291.960938 190.65625 293.210938 C 188.65625 294.460938 186.609375 295.632812 184.523438 296.730469 C 182.433594 297.832031 180.308594 298.851562 178.144531 299.796875 C 175.984375 300.738281 173.789062 301.601562 171.5625 302.382812 C 169.335938 303.164062 167.082031 303.863281 164.804688 304.480469 C 162.527344 305.097656 160.230469 305.628906 157.914062 306.078125 C 155.597656 306.527344 153.265625 306.890625 150.925781 307.164062 C 148.582031 307.441406 146.230469 307.632812 143.871094 307.738281 C 141.515625 307.84375 139.15625 307.863281 136.796875 307.792969 C 134.441406 307.726562 132.085938 307.570312 129.738281 307.328125 C 127.390625 307.089844 125.058594 306.761719 122.734375 306.347656 C 120.410156 305.9375 118.105469 305.4375 115.816406 304.859375 C 113.53125 304.277344 111.269531 303.613281 109.03125 302.863281 L 63.910156 337.175781 C 63.65625 337.328125 63.382812 337.40625 63.085938 337.40625 C 62.789062 337.40625 62.515625 337.328125 62.265625 337.171875 C 62.015625 337.015625 61.820312 336.808594 61.6875 336.542969 C 61.558594 336.277344 61.503906 336 61.53125 335.703125 Z M 337.5 153.207031 C 337.503906 156.667969 337.339844 160.125 337.007812 163.570312 C 336.671875 167.019531 336.171875 170.441406 335.503906 173.839844 C 334.839844 177.238281 334.007812 180.59375 333.011719 183.910156 C 332.015625 187.230469 330.863281 190.488281 329.546875 193.695312 C 328.234375 196.898438 326.769531 200.03125 325.148438 203.09375 C 323.53125 206.152344 321.765625 209.128906 319.855469 212.015625 C 317.945312 214.90625 315.902344 217.695312 313.71875 220.382812 C 311.535156 223.074219 309.230469 225.648438 306.796875 228.113281 L 317.070312 290.820312 C 317.101562 291.144531 317.042969 291.453125 316.894531 291.746094 C 316.75 292.039062 316.535156 292.273438 316.257812 292.445312 C 315.980469 292.617188 315.675781 292.703125 315.347656 292.703125 C 315.023438 292.703125 314.71875 292.617188 314.441406 292.445312 L 264.527344 254.492188 C 262.757812 255.085938 260.972656 255.628906 259.171875 256.125 C 257.371094 256.625 255.5625 257.074219 253.738281 257.476562 C 251.914062 257.878906 250.082031 258.234375 248.238281 258.539062 C 246.398438 258.847656 244.550781 259.105469 242.695312 259.3125 C 240.839844 259.523438 238.980469 259.683594 237.117188 259.796875 C 235.253906 259.90625 233.386719 259.96875 231.519531 259.984375 C 229.652344 259.996094 227.785156 259.964844 225.921875 259.878906 C 224.054688 259.796875 222.195312 259.664062 220.335938 259.480469 C 218.476562 259.300781 216.625 259.070312 214.78125 258.789062 C 212.933594 258.511719 211.09375 258.183594 209.265625 257.808594 C 207.4375 257.433594 205.621094 257.011719 203.8125 256.542969 C 202.003906 256.070312 200.210938 255.554688 198.433594 254.988281 C 196.652344 254.425781 194.890625 253.8125 193.140625 253.15625 C 191.394531 252.5 189.664062 251.796875 187.953125 251.050781 C 186.242188 250.300781 184.554688 249.511719 182.882812 248.671875 C 181.214844 247.835938 179.566406 246.957031 177.945312 246.035156 C 176.320312 245.113281 174.722656 244.148438 173.152344 243.140625 C 171.578125 242.132812 170.035156 241.085938 168.515625 240 C 167 238.910156 165.511719 237.785156 164.050781 236.621094 C 162.59375 235.453125 161.167969 234.25 159.769531 233.011719 C 158.375 231.769531 157.015625 230.492188 155.683594 229.183594 C 154.355469 227.871094 153.0625 226.523438 151.804688 225.144531 C 150.546875 223.765625 149.328125 222.351562 148.144531 220.910156 C 146.960938 219.464844 145.816406 217.992188 144.707031 216.488281 C 143.601562 214.984375 142.535156 213.453125 141.507812 211.890625 C 140.484375 210.332031 139.5 208.746094 138.554688 207.132812 C 137.613281 205.523438 136.710938 203.886719 135.855469 202.230469 C 134.996094 200.570312 134.183594 198.890625 133.414062 197.1875 C 132.648438 195.488281 131.921875 193.765625 131.242188 192.027344 C 130.566406 190.289062 129.933594 188.53125 129.34375 186.761719 C 128.757812 184.988281 128.21875 183.203125 127.726562 181.402344 C 127.234375 179.597656 126.789062 177.785156 126.390625 175.960938 C 125.992188 174.136719 125.640625 172.304688 125.339844 170.460938 C 125.039062 168.621094 124.785156 166.769531 124.582031 164.914062 C 124.375 163.058594 124.21875 161.199219 124.113281 159.335938 C 124.003906 157.472656 123.945312 155.605469 123.9375 153.738281 C 123.929688 151.871094 123.96875 150.003906 124.054688 148.140625 C 124.144531 146.277344 124.28125 144.414062 124.46875 142.554688 C 124.65625 140.699219 124.890625 138.847656 125.171875 137 C 125.457031 135.15625 125.789062 133.320312 126.167969 131.492188 C 126.546875 129.664062 126.972656 127.847656 127.449219 126.039062 C 127.925781 124.234375 128.445312 122.441406 129.015625 120.664062 C 129.585938 118.886719 130.199219 117.125 130.859375 115.378906 C 131.523438 113.632812 132.230469 111.90625 132.980469 110.195312 C 133.734375 108.488281 134.527344 106.796875 135.371094 105.132812 C 136.210938 103.464844 137.09375 101.820312 138.019531 100.199219 C 138.949219 98.578125 139.917969 96.984375 140.925781 95.414062 C 141.9375 93.84375 142.988281 92.300781 144.078125 90.785156 C 145.171875 89.269531 146.300781 87.785156 147.46875 86.332031 C 148.640625 84.875 149.847656 83.449219 151.089844 82.058594 C 152.335938 80.664062 153.613281 79.308594 154.929688 77.980469 C 156.246094 76.65625 157.59375 75.367188 158.976562 74.113281 C 160.359375 72.859375 161.773438 71.640625 163.222656 70.460938 C 164.667969 69.28125 166.144531 68.140625 167.652344 67.035156 C 169.160156 65.933594 170.691406 64.871094 172.253906 63.847656 C 173.816406 62.828125 175.40625 61.847656 177.019531 60.90625 C 178.632812 59.96875 180.269531 59.074219 181.933594 58.21875 C 183.59375 57.367188 185.273438 56.558594 186.976562 55.792969 C 188.679688 55.027344 190.402344 54.308594 192.144531 53.632812 C 193.886719 52.960938 195.644531 52.332031 197.417969 51.75 C 199.191406 51.167969 200.980469 50.632812 202.78125 50.140625 C 204.582031 49.652344 206.398438 49.214844 208.222656 48.820312 C 210.046875 48.425781 211.882812 48.082031 213.722656 47.785156 C 215.566406 47.488281 217.417969 47.238281 219.273438 47.039062 C 221.128906 46.839844 222.992188 46.6875 224.855469 46.585938 C 226.71875 46.480469 228.585938 46.429688 230.453125 46.421875 C 232.320312 46.417969 234.183594 46.460938 236.050781 46.554688 C 237.914062 46.648438 239.773438 46.792969 241.632812 46.980469 C 243.488281 47.171875 245.339844 47.414062 247.1875 47.699219 C 249.03125 47.988281 250.867188 48.324219 252.695312 48.707031 C 254.519531 49.09375 256.335938 49.523438 258.140625 50.003906 C 259.945312 50.484375 261.734375 51.011719 263.511719 51.582031 C 265.289062 52.15625 267.050781 52.777344 268.792969 53.441406 C 270.539062 54.109375 272.265625 54.820312 273.972656 55.574219 C 275.679688 56.332031 277.363281 57.132812 279.03125 57.976562 C 280.695312 58.820312 282.335938 59.710938 283.957031 60.640625 C 285.574219 61.570312 287.167969 62.542969 288.734375 63.558594 C 290.300781 64.574219 291.839844 65.628906 293.351562 66.722656 C 294.867188 67.816406 296.347656 68.953125 297.800781 70.125 C 299.253906 71.296875 300.675781 72.507812 302.0625 73.753906 C 303.453125 75.003906 304.808594 76.285156 306.128906 77.605469 C 307.453125 78.921875 308.738281 80.277344 309.988281 81.660156 C 311.238281 83.046875 312.453125 84.464844 313.628906 85.914062 C 314.808594 87.363281 315.945312 88.84375 317.042969 90.355469 C 318.144531 91.863281 319.203125 93.402344 320.21875 94.964844 C 321.238281 96.53125 322.214844 98.121094 323.148438 99.738281 C 324.085938 101.355469 324.976562 102.992188 325.824219 104.65625 C 326.675781 106.320312 327.480469 108.003906 328.238281 109.707031 C 329 111.414062 329.714844 113.136719 330.386719 114.878906 C 331.054688 116.625 331.679688 118.382812 332.257812 120.15625 C 332.835938 121.933594 333.367188 123.722656 333.851562 125.527344 C 334.332031 127.328125 334.769531 129.144531 335.160156 130.96875 C 335.546875 132.796875 335.886719 134.632812 336.179688 136.476562 C 336.472656 138.320312 336.71875 140.171875 336.914062 142.027344 C 337.109375 143.882812 337.253906 145.746094 337.351562 147.609375 C 337.449219 149.472656 337.5 151.339844 337.5 153.207031 Z M 261.796875 153.207031 C 261.796875 154.066406 261.878906 154.917969 262.046875 155.757812 C 262.214844 156.601562 262.464844 157.421875 262.792969 158.214844 C 263.121094 159.007812 263.523438 159.761719 264 160.476562 C 264.480469 161.191406 265.023438 161.851562 265.628906 162.460938 C 266.238281 163.066406 266.898438 163.609375 267.613281 164.085938 C 268.328125 164.566406 269.082031 164.96875 269.875 165.296875 C 270.667969 165.625 271.488281 165.875 272.328125 166.042969 C 273.171875 166.207031 274.023438 166.292969 274.882812 166.292969 C 275.742188 166.292969 276.59375 166.207031 277.433594 166.042969 C 278.277344 165.875 279.097656 165.625 279.890625 165.296875 C 280.683594 164.96875 281.4375 164.566406 282.152344 164.085938 C 282.867188 163.609375 283.527344 163.066406 284.136719 162.460938 C 284.742188 161.851562 285.285156 161.191406 285.761719 160.476562 C 286.242188 159.761719 286.644531 159.007812 286.972656 158.214844 C 287.300781 157.421875 287.550781 156.601562 287.71875 155.757812 C 287.886719 154.917969 287.96875 154.066406 287.96875 153.207031 C 287.96875 152.347656 287.886719 151.496094 287.71875 150.652344 C 287.550781 149.8125 287.300781 148.992188 286.972656 148.199219 C 286.644531 147.40625 286.242188 146.652344 285.761719 145.9375 C 285.285156 145.222656 284.742188 144.5625 284.136719 143.953125 C 283.527344 143.34375 282.867188 142.804688 282.152344 142.324219 C 281.4375 141.847656 280.683594 141.445312 279.890625 141.117188 C 279.097656 140.789062 278.277344 140.539062 277.433594 140.371094 C 276.59375 140.203125 275.742188 140.121094 274.882812 140.121094 C 274.023438 140.121094 273.171875 140.203125 272.328125 140.371094 C 271.488281 140.539062 270.667969 140.789062 269.875 141.117188 C 269.082031 141.445312 268.328125 141.847656 267.613281 142.324219 C 266.898438 142.804688 266.238281 143.34375 265.628906 143.953125 C 265.023438 144.5625 264.480469 145.222656 264 145.9375 C 263.523438 146.652344 263.121094 147.40625 262.792969 148.199219 C 262.464844 148.992188 262.214844 149.8125 262.046875 150.652344 C 261.878906 151.496094 261.796875 152.347656 261.796875 153.207031 Z M 199.636719 153.207031 C 199.636719 152.347656 199.554688 151.496094 199.386719 150.652344 C 199.21875 149.8125 198.96875 148.992188 198.640625 148.199219 C 198.3125 147.40625 197.910156 146.652344 197.433594 145.9375 C 196.953125 145.222656 196.410156 144.5625 195.804688 143.953125 C 195.195312 143.34375 194.535156 142.804688 193.820312 142.324219 C 193.105469 141.847656 192.351562 141.445312 191.558594 141.117188 C 190.765625 140.789062 189.945312 140.539062 189.105469 140.371094 C 188.261719 140.203125 187.410156 140.121094 186.550781 140.121094 C 185.691406 140.121094 184.839844 140.203125 183.996094 140.371094 C 183.15625 140.539062 182.335938 140.789062 181.542969 141.117188 C 180.75 141.445312 179.996094 141.847656 179.28125 142.324219 C 178.566406 142.804688 177.90625 143.34375 177.296875 143.953125 C 176.691406 144.5625 176.148438 145.222656 175.671875 145.9375 C 175.191406 146.652344 174.789062 147.40625 174.460938 148.199219 C 174.132812 148.992188 173.882812 149.8125 173.714844 150.652344 C 173.546875 151.496094 173.464844 152.347656 173.464844 153.207031 C 173.464844 154.066406 173.546875 154.917969 173.714844 155.757812 C 173.882812 156.601562 174.132812 157.421875 174.460938 158.214844 C 174.789062 159.007812 175.191406 159.761719 175.671875 160.476562 C 176.148438 161.191406 176.691406 161.851562 177.296875 162.460938 C 177.90625 163.066406 178.566406 163.609375 179.28125 164.085938 C 179.996094 164.566406 180.75 164.96875 181.542969 165.296875 C 182.335938 165.625 183.15625 165.875 183.996094 166.042969 C 184.839844 166.207031 185.691406 166.292969 186.550781 166.292969 C 187.410156 166.292969 188.261719 166.207031 189.105469 166.042969 C 189.945312 165.875 190.765625 165.625 191.558594 165.296875 C 192.351562 164.96875 193.105469 164.566406 193.820312 164.085938 C 194.535156 163.609375 195.195312 163.066406 195.804688 162.460938 C 196.410156 161.851562 196.953125 161.191406 197.433594 160.476562 C 197.910156 159.761719 198.3125 159.007812 198.640625 158.214844 C 198.96875 157.421875 199.21875 156.601562 199.386719 155.757812 C 199.554688 154.917969 199.636719 154.066406 199.636719 153.207031 Z M 243.804688 153.207031 C 243.804688 152.347656 243.71875 151.496094 243.550781 150.652344 C 243.382812 149.8125 243.136719 148.992188 242.808594 148.199219 C 242.476562 147.40625 242.074219 146.652344 241.597656 145.9375 C 241.121094 145.222656 240.578125 144.5625 239.96875 143.953125 C 239.363281 143.34375 238.703125 142.804688 237.988281 142.324219 C 237.273438 141.847656 236.519531 141.445312 235.722656 141.117188 C 234.929688 140.789062 234.113281 140.539062 233.269531 140.371094 C 232.425781 140.203125 231.574219 140.121094 230.714844 140.121094 C 229.859375 140.121094 229.007812 140.203125 228.164062 140.371094 C 227.320312 140.539062 226.503906 140.789062 225.707031 141.117188 C 224.914062 141.445312 224.160156 141.847656 223.445312 142.324219 C 222.730469 142.804688 222.070312 143.34375 221.464844 143.953125 C 220.855469 144.5625 220.3125 145.222656 219.835938 145.9375 C 219.359375 146.652344 218.957031 147.40625 218.625 148.199219 C 218.296875 148.992188 218.050781 149.8125 217.882812 150.652344 C 217.714844 151.496094 217.628906 152.347656 217.628906 153.207031 C 217.628906 154.066406 217.714844 154.917969 217.882812 155.757812 C 218.050781 156.601562 218.296875 157.421875 218.625 158.214844 C 218.957031 159.007812 219.359375 159.761719 219.835938 160.476562 C 220.3125 161.191406 220.855469 161.851562 221.464844 162.460938 C 222.070312 163.066406 222.730469 163.609375 223.445312 164.085938 C 224.160156 164.566406 224.914062 164.96875 225.707031 165.296875 C 226.503906 165.625 227.320312 165.875 228.164062 166.042969 C 229.007812 166.207031 229.859375 166.292969 230.714844 166.292969 C 231.574219 166.292969 232.425781 166.207031 233.269531 166.042969 C 234.113281 165.875 234.929688 165.625 235.726562 165.296875 C 236.519531 164.96875 237.273438 164.566406 237.988281 164.085938 C 238.703125 163.609375 239.363281 163.066406 239.96875 162.460938 C 240.578125 161.851562 241.121094 161.191406 241.597656 160.476562 C 242.074219 159.761719 242.476562 159.007812 242.808594 158.214844 C 243.136719 157.421875 243.382812 156.601562 243.550781 155.757812 C 243.71875 154.917969 243.804688 154.066406 243.804688 153.207031 Z M 243.804688 153.207031 "/></g></g></svg>