<svg xmlns="http://www.w3.org/2000/svg" xmlns:xlink="http://www.w3.org/1999/xlink" width="500" zoomAndPan="magnify" viewBox="0 0 375 374.999991" height="500" preserveAspectRatio="xMidYMid meet" version="1.2"><defs><clipPath id="a864c485ea"><path d="M 55.40625 55.40625 L 319.40625 55.40625 L 319.40625 319.40625 L 55.40625 319.40625 Z M 55.40625 55.40625 "/></clipPath></defs><g id="e23e94c705"><g clip-rule="nonzero" clip-path="url(#a864c485ea)"><path style=" stroke:none;fill-rule:nonzero;fill:#1b263b;fill-opacity:1;" d="M 187.40625 55.40625 C 185.246094 55.40625 183.085938 55.457031 180.929688 55.5625 C 178.769531 55.667969 176.617188 55.828125 174.464844 56.039062 C 172.316406 56.253906 170.171875 56.515625 168.035156 56.832031 C 165.898438 57.152344 163.773438 57.519531 161.652344 57.941406 C 159.535156 58.363281 157.425781 58.835938 155.332031 59.359375 C 153.234375 59.886719 151.15625 60.460938 149.085938 61.089844 C 147.019531 61.714844 144.96875 62.394531 142.933594 63.121094 C 140.902344 63.847656 138.886719 64.625 136.890625 65.453125 C 134.894531 66.28125 132.921875 67.15625 130.96875 68.078125 C 129.015625 69 127.085938 69.972656 125.179688 70.992188 C 123.273438 72.007812 121.394531 73.074219 119.542969 74.183594 C 117.691406 75.296875 115.867188 76.449219 114.070312 77.652344 C 112.273438 78.851562 110.507812 80.09375 108.773438 81.382812 C 107.039062 82.667969 105.335938 83.996094 103.664062 85.367188 C 101.996094 86.738281 100.359375 88.148438 98.757812 89.597656 C 97.160156 91.050781 95.59375 92.539062 94.066406 94.066406 C 92.539062 95.59375 91.050781 97.160156 89.597656 98.757812 C 88.148438 100.359375 86.738281 101.996094 85.367188 103.664062 C 83.996094 105.335938 82.667969 107.039062 81.382812 108.773438 C 80.09375 110.507812 78.851562 112.273438 77.652344 114.070312 C 76.449219 115.867188 75.296875 117.691406 74.183594 119.542969 C 73.074219 121.394531 72.007812 123.273438 70.992188 125.179688 C 69.972656 127.085938 69 129.015625 68.078125 130.96875 C 67.15625 132.921875 66.277344 134.894531 65.453125 136.890625 C 64.625 138.886719 63.847656 140.902344 63.121094 142.933594 C 62.394531 144.96875 61.714844 147.019531 61.089844 149.085938 C 60.460938 151.15625 59.886719 153.234375 59.359375 155.332031 C 58.835938 157.425781 58.363281 159.535156 57.941406 161.652344 C 57.519531 163.773438 57.148438 165.898438 56.832031 168.035156 C 56.515625 170.171875 56.253906 172.316406 56.039062 174.464844 C 55.828125 176.617188 55.667969 178.769531 55.5625 180.929688 C 55.457031 183.085938 55.40625 185.246094 55.40625 187.40625 C 55.40625 189.566406 55.457031 191.722656 55.5625 193.882812 C 55.667969 196.039062 55.828125 198.191406 56.039062 200.34375 C 56.253906 202.492188 56.515625 204.636719 56.832031 206.773438 C 57.148438 208.910156 57.519531 211.039062 57.941406 213.15625 C 58.363281 215.273438 58.835938 217.382812 59.359375 219.476562 C 59.886719 221.574219 60.460938 223.65625 61.089844 225.722656 C 61.714844 227.789062 62.394531 229.839844 63.121094 231.875 C 63.847656 233.90625 64.625 235.921875 65.453125 237.917969 C 66.277344 239.914062 67.15625 241.890625 68.078125 243.84375 C 69 245.792969 69.972656 247.722656 70.992188 249.628906 C 72.007812 251.535156 73.074219 253.414062 74.183594 255.265625 C 75.296875 257.121094 76.449219 258.945312 77.652344 260.738281 C 78.851562 262.535156 80.09375 264.300781 81.382812 266.035156 C 82.667969 267.773438 83.996094 269.476562 85.367188 271.144531 C 86.738281 272.816406 88.148438 274.449219 89.597656 276.050781 C 91.050781 277.652344 92.539062 279.214844 94.066406 280.742188 C 95.59375 282.269531 97.160156 283.757812 98.757812 285.210938 C 100.359375 286.660156 101.996094 288.070312 103.664062 289.441406 C 105.335938 290.8125 107.039062 292.140625 108.773438 293.429688 C 110.507812 294.714844 112.273438 295.957031 114.070312 297.160156 C 115.867188 298.359375 117.691406 299.515625 119.542969 300.625 C 121.394531 301.734375 123.273438 302.800781 125.179688 303.816406 C 127.085938 304.835938 129.015625 305.808594 130.96875 306.730469 C 132.921875 307.65625 134.894531 308.53125 136.890625 309.355469 C 138.886719 310.183594 140.902344 310.960938 142.933594 311.6875 C 144.96875 312.417969 147.019531 313.09375 149.085938 313.722656 C 151.15625 314.347656 153.234375 314.925781 155.332031 315.449219 C 157.425781 315.972656 159.535156 316.445312 161.652344 316.867188 C 163.773438 317.289062 165.898438 317.660156 168.035156 317.976562 C 170.171875 318.292969 172.316406 318.558594 174.464844 318.769531 C 176.617188 318.980469 178.769531 319.140625 180.929688 319.246094 C 183.085938 319.351562 185.246094 319.40625 187.40625 319.40625 C 189.566406 319.40625 191.722656 319.351562 193.882812 319.246094 C 196.039062 319.140625 198.191406 318.980469 200.34375 318.769531 C 202.492188 318.558594 204.636719 318.292969 206.773438 317.976562 C 208.910156 317.660156 211.039062 317.289062 213.15625 316.867188 C 215.273438 316.445312 217.382812 315.972656 219.476562 315.449219 C 221.574219 314.925781 223.65625 314.347656 225.722656 313.722656 C 227.789062 313.09375 229.839844 312.417969 231.875 311.6875 C 233.90625 310.960938 235.921875 310.183594 237.917969 309.355469 C 239.914062 308.53125 241.890625 307.65625 243.84375 306.730469 C 245.792969 305.808594 247.722656 304.835938 249.628906 303.816406 C 251.535156 302.800781 253.414062 301.734375 255.265625 300.625 C 257.121094 299.515625 258.945312 298.359375 260.738281 297.160156 C 262.535156 295.957031 264.300781 294.714844 266.035156 293.429688 C 267.773438 292.140625 269.476562 290.8125 271.144531 289.441406 C 272.816406 288.070312 274.449219 286.660156 276.050781 285.210938 C 277.652344 283.757812 279.214844 282.269531 280.742188 280.742188 C 282.269531 279.214844 283.757812 277.652344 285.210938 276.050781 C 286.660156 274.449219 288.070312 272.816406 289.441406 271.144531 C 290.8125 269.476562 292.140625 267.773438 293.429688 266.035156 C 294.714844 264.300781 295.957031 262.535156 297.160156 260.738281 C 298.359375 258.945312 299.515625 257.121094 300.625 255.265625 C 301.734375 253.414062 302.800781 251.535156 303.816406 249.628906 C 304.835938 247.722656 305.808594 245.792969 306.730469 243.84375 C 307.65625 241.890625 308.53125 239.914062 309.355469 237.917969 C 310.183594 235.921875 310.960938 233.90625 311.6875 231.875 C 312.417969 229.839844 313.09375 227.789062 313.722656 225.722656 C 314.347656 223.65625 314.925781 221.574219 315.449219 219.476562 C 315.972656 217.382812 316.445312 215.273438 316.867188 213.15625 C 317.289062 211.039062 317.660156 208.910156 317.976562 206.773438 C 318.292969 204.636719 318.558594 202.492188 318.769531 200.34375 C 318.980469 198.191406 319.140625 196.039062 319.246094 193.882812 C 319.351562 191.722656 319.40625 189.566406 319.40625 187.40625 C 319.402344 185.246094 319.347656 183.085938 319.238281 180.929688 C 319.128906 178.773438 318.96875 176.621094 318.753906 174.472656 C 318.542969 172.324219 318.273438 170.179688 317.957031 168.042969 C 317.636719 165.90625 317.265625 163.78125 316.84375 161.664062 C 316.417969 159.546875 315.945312 157.441406 315.417969 155.34375 C 314.890625 153.25 314.3125 151.171875 313.6875 149.105469 C 313.058594 147.039062 312.378906 144.988281 311.648438 142.957031 C 310.921875 140.921875 310.144531 138.910156 309.316406 136.914062 C 308.488281 134.921875 307.613281 132.945312 306.6875 130.996094 C 305.761719 129.042969 304.792969 127.117188 303.773438 125.210938 C 302.753906 123.308594 301.6875 121.429688 300.578125 119.578125 C 299.464844 117.726562 298.3125 115.902344 297.109375 114.105469 C 295.910156 112.3125 294.667969 110.546875 293.378906 108.8125 C 292.09375 107.078125 290.765625 105.375 289.394531 103.707031 C 288.023438 102.039062 286.613281 100.402344 285.164062 98.804688 C 283.714844 97.203125 282.222656 95.640625 280.695312 94.113281 C 279.171875 92.585938 277.605469 91.097656 276.007812 89.644531 C 274.40625 88.195312 272.773438 86.785156 271.101562 85.414062 C 269.433594 84.042969 267.730469 82.714844 265.996094 81.429688 C 264.261719 80.140625 262.5 78.898438 260.703125 77.699219 C 258.90625 76.5 257.085938 75.34375 255.230469 74.230469 C 253.378906 73.121094 251.503906 72.054688 249.597656 71.035156 C 247.695312 70.019531 245.765625 69.046875 243.8125 68.121094 C 241.863281 67.199219 239.890625 66.320312 237.894531 65.496094 C 235.898438 64.667969 233.886719 63.886719 231.851562 63.160156 C 229.820312 62.429688 227.769531 61.753906 225.703125 61.125 C 223.640625 60.496094 221.558594 59.917969 219.464844 59.390625 C 217.371094 58.863281 215.261719 58.390625 213.144531 57.96875 C 211.027344 57.542969 208.902344 57.171875 206.765625 56.855469 C 204.628906 56.535156 202.488281 56.269531 200.339844 56.054688 C 198.1875 55.839844 196.035156 55.679688 193.878906 55.570312 C 191.722656 55.460938 189.5625 55.40625 187.40625 55.40625 Z M 231.890625 231.890625 C 231.332031 232.445312 230.726562 232.941406 230.070312 233.378906 C 229.414062 233.816406 228.722656 234.1875 227.996094 234.488281 C 227.269531 234.789062 226.519531 235.019531 225.746094 235.171875 C 224.972656 235.324219 224.191406 235.402344 223.40625 235.402344 C 222.617188 235.402344 221.835938 235.324219 221.0625 235.171875 C 220.292969 235.019531 219.542969 234.789062 218.8125 234.488281 C 218.085938 234.1875 217.394531 233.816406 216.738281 233.378906 C 216.082031 232.941406 215.476562 232.445312 214.921875 231.890625 L 178.921875 195.890625 C 177.796875 194.765625 176.929688 193.464844 176.320312 191.996094 C 175.710938 190.527344 175.40625 188.996094 175.40625 187.40625 L 175.40625 115.40625 C 175.40625 114.617188 175.480469 113.835938 175.636719 113.0625 C 175.789062 112.289062 176.015625 111.539062 176.316406 110.8125 C 176.621094 110.085938 176.988281 109.394531 177.425781 108.738281 C 177.863281 108.082031 178.363281 107.476562 178.917969 106.917969 C 179.476562 106.363281 180.082031 105.863281 180.738281 105.425781 C 181.394531 104.988281 182.085938 104.621094 182.8125 104.316406 C 183.539062 104.015625 184.289062 103.789062 185.0625 103.636719 C 185.835938 103.480469 186.617188 103.40625 187.40625 103.40625 C 188.191406 103.40625 188.972656 103.480469 189.746094 103.636719 C 190.519531 103.789062 191.269531 104.015625 191.996094 104.316406 C 192.726562 104.621094 193.417969 104.988281 194.070312 105.425781 C 194.726562 105.863281 195.332031 106.363281 195.890625 106.917969 C 196.445312 107.476562 196.945312 108.082031 197.382812 108.738281 C 197.820312 109.394531 198.191406 110.085938 198.492188 110.8125 C 198.792969 111.539062 199.019531 112.289062 199.175781 113.0625 C 199.328125 113.835938 199.40625 114.617188 199.40625 115.40625 L 199.40625 182.4375 L 231.890625 214.921875 C 232.445312 215.476562 232.941406 216.082031 233.378906 216.738281 C 233.816406 217.394531 234.1875 218.085938 234.488281 218.8125 C 234.789062 219.542969 235.019531 220.292969 235.171875 221.0625 C 235.324219 221.835938 235.402344 222.617188 235.402344 223.40625 C 235.402344 224.191406 235.324219 224.972656 235.171875 225.746094 C 235.019531 226.519531 234.789062 227.269531 234.488281 227.996094 C 234.1875 228.722656 233.816406 229.414062 233.378906 230.070312 C 232.941406 230.726562 232.445312 231.332031 231.890625 231.890625 Z M 231.890625 231.890625 "/></g></g></svg>