<svg xmlns="http://www.w3.org/2000/svg" xmlns:xlink="http://www.w3.org/1999/xlink" width="500" zoomAndPan="magnify" viewBox="0 0 375 374.999991" height="500" preserveAspectRatio="xMidYMid meet" version="1.2"><defs><clipPath id="e6163aec31"><path d="M 21.628906 24.324219 L 353.128906 24.324219 L 353.128906 349 L 21.628906 349 Z M 21.628906 24.324219 "/></clipPath></defs><g id="b68b717b15"><g clip-rule="nonzero" clip-path="url(#e6163aec31)"><path style=" stroke:none;fill-rule:evenodd;fill:#1b263b;fill-opacity:1;" d="M 113.628906 177.246094 L 113.628906 64.503906 C 113.628906 63.011719 114.242188 61.660156 115.230469 60.691406 L 150 25.921875 C 151.042969 24.878906 152.410156 24.355469 153.777344 24.355469 L 246.050781 24.355469 C 250.203125 24.355469 253.972656 26.050781 256.703125 28.78125 C 259.433594 31.511719 261.128906 35.28125 261.128906 39.433594 L 261.128906 178.300781 C 261.128906 178.667969 261.398438 178.96875 261.761719 179.007812 C 267.542969 179.667969 273.109375 180.25 278.109375 180.621094 C 278.394531 180.644531 278.625 180.816406 278.722656 181.085938 L 306.949219 256.941406 C 307.074219 257.277344 306.9375 257.648438 306.621094 257.816406 L 277.34375 273.582031 C 277.03125 273.746094 276.652344 273.667969 276.4375 273.386719 C 276.128906 272.980469 275.796875 272.578125 275.441406 272.175781 L 242.273438 234.679688 C 240.992188 233.230469 239.101562 232.648438 237.328125 232.972656 C 228.996094 234.523438 220.75 234.859375 212.589844 234.085938 C 204.402344 233.308594 196.265625 231.402344 188.175781 228.476562 C 186.519531 227.878906 184.761719 228.148438 183.402344 229.050781 L 183.394531 229.039062 L 138.992188 258.644531 C 136.652344 260.203125 133.945312 260.742188 131.398438 260.347656 C 128.832031 259.949219 126.410156 258.621094 124.667969 256.441406 L 123.953125 255.550781 C 122.242188 253.40625 121.46875 250.800781 121.609375 248.242188 C 121.75 245.710938 122.8125 243.21875 124.761719 241.265625 L 184.667969 181.359375 C 184.734375 181.292969 184.800781 181.25 184.882812 181.210938 C 188.882812 179.441406 192.917969 178.023438 196.992188 176.949219 C 201.355469 175.796875 205.765625 175.050781 210.214844 174.707031 C 218.976562 174.019531 234.21875 175.757812 249.648438 177.585938 C 249.855469 177.613281 250.046875 177.554688 250.203125 177.414062 C 250.359375 177.273438 250.441406 177.089844 250.441406 176.878906 L 250.441406 39.433594 C 250.441406 38.234375 249.945312 37.136719 249.148438 36.335938 C 248.351562 35.539062 247.253906 35.042969 246.050781 35.042969 L 159.832031 35.042969 C 159.441406 35.042969 159.121094 35.363281 159.121094 35.753906 L 159.121094 54.769531 C 159.121094 58.921875 157.425781 62.691406 154.695312 65.421875 C 151.964844 68.152344 148.195312 69.847656 144.042969 69.847656 L 125.027344 69.847656 C 124.636719 69.847656 124.316406 70.167969 124.316406 70.558594 L 124.316406 174.40625 C 124.316406 174.636719 124.414062 174.832031 124.59375 174.96875 C 124.769531 175.109375 124.984375 175.152344 125.207031 175.097656 C 138.144531 171.769531 150.273438 168.238281 164.941406 169.382812 C 169.296875 169.726562 173.628906 170.425781 177.933594 171.492188 C 178.199219 171.558594 178.394531 171.753906 178.457031 172.023438 C 178.515625 172.292969 178.429688 172.554688 178.21875 172.730469 C 178.09375 172.832031 177.972656 172.941406 177.859375 173.058594 L 117.207031 233.710938 C 113.347656 237.570312 111.246094 242.558594 110.964844 247.660156 C 110.683594 252.734375 112.226562 257.910156 115.644531 262.1875 L 116.359375 263.078125 C 119.835938 267.421875 124.660156 270.074219 129.769531 270.867188 C 134.898438 271.664062 140.304688 270.609375 144.917969 267.535156 L 186.832031 239.589844 C 187.023438 239.464844 187.238281 239.433594 187.453125 239.507812 C 195.414062 242.160156 203.457031 243.914062 211.585938 244.6875 C 219.621094 245.453125 227.722656 245.253906 235.882812 244.015625 C 236.128906 243.976562 236.355469 244.058594 236.523438 244.246094 L 267.464844 279.230469 C 267.886719 279.710938 268.277344 280.261719 268.628906 280.871094 C 268.644531 280.898438 268.65625 280.921875 268.667969 280.949219 C 277.242188 301.3125 256.199219 301.492188 249.640625 297.394531 C 249.402344 297.246094 249.121094 297.25 248.882812 297.398438 C 248.648438 297.550781 248.523438 297.804688 248.558594 298.082031 C 249.523438 306.222656 246.320312 313.023438 240.765625 315.984375 C 235.535156 318.773438 228.222656 318.167969 220.328125 312.082031 C 220.078125 311.890625 219.746094 311.882812 219.488281 312.0625 C 219.226562 312.242188 219.121094 312.554688 219.210938 312.855469 C 221.882812 321.640625 218.867188 328.613281 213.117188 331.652344 C 207.746094 334.488281 199.984375 333.898438 192.242188 328.148438 C 192 327.96875 191.6875 327.957031 191.4375 328.121094 C 191.183594 328.28125 191.0625 328.570312 191.121094 328.863281 C 192.574219 335.964844 189.285156 345.316406 182.34375 348.132812 C 176.664062 350.4375 168.535156 348.359375 158.5625 337.089844 C 158.554688 337.082031 158.550781 337.074219 158.539062 337.066406 L 108.222656 285.492188 C 108.167969 285.4375 108.117188 285.398438 108.050781 285.363281 L 75.554688 267.867188 L 66.261719 262.863281 C 65.945312 262.691406 65.804688 262.320312 65.929688 261.984375 L 96.117188 180.863281 C 96.210938 180.605469 96.433594 180.433594 96.707031 180.40625 C 101.03125 179.9375 105.347656 179.328125 109.660156 178.582031 C 110.804688 178.382812 111.9375 178.167969 113.054688 177.945312 C 113.394531 177.878906 113.628906 177.589844 113.628906 177.246094 Z M 287.875 175.160156 L 322.976562 269.488281 C 323.296875 270.351562 323.945312 271.003906 324.730469 271.363281 C 325.519531 271.726562 326.441406 271.789062 327.300781 271.46875 L 350.839844 262.710938 C 351.699219 262.390625 352.355469 261.742188 352.714844 260.957031 C 353.074219 260.167969 353.140625 259.246094 352.820312 258.386719 L 317.71875 164.058594 C 317.398438 163.195312 316.75 162.542969 315.964844 162.183594 C 315.175781 161.820312 314.253906 161.757812 313.394531 162.074219 L 289.859375 170.835938 C 288.996094 171.15625 288.34375 171.804688 287.984375 172.589844 C 287.621094 173.378906 287.558594 174.300781 287.875 175.160156 Z M 51.78125 269.488281 L 86.882812 175.160156 C 87.203125 174.300781 87.136719 173.378906 86.777344 172.589844 C 86.417969 171.804688 85.761719 171.15625 84.902344 170.835938 L 61.363281 162.074219 C 60.503906 161.757812 59.582031 161.820312 58.792969 162.183594 C 58.007812 162.542969 57.359375 163.195312 57.039062 164.058594 L 21.9375 258.390625 C 21.617188 259.246094 21.683594 260.167969 22.042969 260.957031 C 22.402344 261.738281 23.054688 262.386719 23.910156 262.707031 C 23.917969 262.710938 23.921875 262.710938 23.929688 262.714844 C 31.542969 265.851562 39.726562 268.496094 47.460938 271.472656 C 48.320312 271.789062 49.238281 271.726562 50.027344 271.363281 C 50.8125 271.003906 51.460938 270.351562 51.78125 269.488281 Z M 145.339844 146.78125 L 229.417969 146.78125 C 232.371094 146.78125 234.761719 144.390625 234.761719 141.441406 C 234.761719 138.488281 232.371094 136.097656 229.417969 136.097656 L 145.339844 136.097656 C 142.390625 136.097656 139.996094 138.488281 139.996094 141.441406 C 139.996094 144.390625 142.390625 146.78125 145.339844 146.78125 Z M 145.339844 106.449219 L 229.417969 106.449219 C 232.371094 106.449219 234.761719 104.058594 234.761719 101.105469 C 234.761719 98.15625 232.371094 95.761719 229.417969 95.761719 L 145.339844 95.761719 C 142.390625 95.761719 139.996094 98.15625 139.996094 101.105469 C 139.996094 104.058594 142.390625 106.449219 145.339844 106.449219 Z M 145.339844 106.449219 "/></g></g></svg>