<svg xmlns="http://www.w3.org/2000/svg" xmlns:xlink="http://www.w3.org/1999/xlink" width="500" zoomAndPan="magnify" viewBox="0 0 375 374.999991" height="500" preserveAspectRatio="xMidYMid meet" version="1.2"><defs><clipPath id="0c0881d1bd"><path d="M 88.34375 44.570312 L 286.34375 44.570312 L 286.34375 330.320312 L 88.34375 330.320312 Z M 88.34375 44.570312 "/></clipPath></defs><g id="500267f0d4"><g clip-rule="nonzero" clip-path="url(#0c0881d1bd)"><path style=" stroke:none;fill-rule:nonzero;fill:#1b263b;fill-opacity:1;" d="M 187.34375 44.535156 C 132.699219 44.535156 88.410156 88.828125 88.410156 143.46875 C 88.410156 152.558594 89.660156 161.355469 91.960938 169.710938 C 93.949219 176.988281 96.742188 183.941406 100.261719 190.449219 C 101.109375 192.019531 102.007812 193.566406 102.933594 195.089844 L 177.523438 324.285156 C 177.683594 324.5625 177.828125 324.851562 178.003906 325.121094 C 180.054688 328.082031 183.46875 330.019531 187.339844 330.019531 C 191.21875 330.019531 194.644531 328.054688 196.691406 325.085938 L 197.007812 324.535156 L 271.730469 195.113281 L 274.429688 190.4375 C 277.941406 183.933594 280.730469 176.976562 282.730469 169.710938 C 285.019531 161.355469 286.273438 152.558594 286.273438 143.46875 C 286.273438 88.828125 241.984375 44.535156 187.34375 44.535156 Z M 187.339844 184.941406 C 164.425781 184.941406 145.851562 166.371094 145.851562 143.46875 C 145.851562 120.554688 164.421875 101.980469 187.339844 101.980469 C 210.25 101.980469 228.8125 120.554688 228.8125 143.46875 C 228.8125 166.371094 210.25 184.941406 187.339844 184.941406 Z M 187.339844 184.941406 "/></g></g></svg>