<svg xmlns="http://www.w3.org/2000/svg" xmlns:xlink="http://www.w3.org/1999/xlink" width="500" zoomAndPan="magnify" viewBox="0 0 375 374.999991" height="500" preserveAspectRatio="xMidYMid meet" version="1.2"><defs><clipPath id="97ab47a89e"><path d="M 50 86.578125 L 324 86.578125 L 324 204 L 50 204 Z M 50 86.578125 "/></clipPath><clipPath id="9c439764d7"><path d="M 41.5 108 L 333.25 108 L 333.25 288.328125 L 41.5 288.328125 Z M 41.5 108 "/></clipPath></defs><g id="55c08e8180"><g clip-rule="nonzero" clip-path="url(#97ab47a89e)"><path style=" stroke:none;fill-rule:nonzero;fill:#1b263b;fill-opacity:1;" d="M 187.4375 203.929688 C 199.59375 203.039062 265.140625 149.09375 323.304688 95.953125 C 317.398438 90.210938 309.351562 86.664062 300.460938 86.664062 L 74.316406 86.664062 C 65.175781 86.664062 56.917969 90.402344 50.964844 96.429688 C 109.292969 149.296875 175.171875 203.070312 187.4375 203.929688 "/></g><g clip-rule="nonzero" clip-path="url(#9c439764d7)"><path style=" stroke:none;fill-rule:nonzero;fill:#1b263b;fill-opacity:1;" d="M 273.222656 160.046875 C 203.542969 219.023438 192.21875 219.023438 187.382812 219.023438 C 182.554688 219.023438 171.25 219.023438 101.546875 160.527344 C 77.175781 140.078125 53.992188 119.4375 43.019531 109.578125 C 42.027344 112.703125 41.484375 116.035156 41.484375 119.492188 L 41.484375 255.433594 C 41.484375 273.550781 56.171875 288.238281 74.289062 288.238281 L 300.4375 288.238281 C 318.566406 288.238281 333.265625 273.542969 333.265625 255.410156 L 333.265625 119.46875 C 333.265625 115.761719 332.621094 112.214844 331.488281 108.890625 C 320.425781 118.921875 297.40625 139.574219 273.222656 160.046875 "/></g></g></svg>