<svg xmlns="http://www.w3.org/2000/svg" xmlns:xlink="http://www.w3.org/1999/xlink" width="500" zoomAndPan="magnify" viewBox="0 0 375 374.999991" height="500" preserveAspectRatio="xMidYMid meet" version="1.2"><defs><clipPath id="3d4401b0dd"><path d="M 63.660156 107.101562 L 311.324219 107.101562 L 311.324219 341.515625 L 63.660156 341.515625 Z M 63.660156 107.101562 "/></clipPath></defs><g id="ddae27cbd5"><path style=" stroke:none;fill-rule:nonzero;fill:#1b263b;fill-opacity:1;" d="M 209.117188 36.734375 C 202.878906 33.472656 195.292969 34.269531 189.867188 38.75 C 180.15625 46.769531 166.796875 48.726562 155.195312 43.828125 L 149.476562 41.414062 C 145.765625 39.84375 141.714844 39.257812 137.707031 39.707031 C 125.679688 41.054688 119.410156 54.71875 126.238281 64.710938 C 134.695312 77.089844 144.972656 92.132812 152.257812 102.800781 C 162.566406 98.949219 174.3125 96.910156 187.359375 96.734375 L 187.636719 96.734375 C 199.367188 96.890625 210.042969 98.558594 219.574219 101.699219 C 224.34375 92.691406 230.820312 84.683594 238.492188 77.953125 L 250.082031 67.792969 C 252.472656 65.699219 251.875 61.832031 248.96875 60.554688 L 245.773438 59.148438 C 236.191406 54.929688 224.96875 58.398438 219.429688 67.28125 C 217.421875 70.507812 215.460938 73.65625 213.949219 76.078125 C 215.070312 70.667969 216.738281 62.609375 218.148438 55.785156 C 219.734375 48.128906 216.046875 40.355469 209.117188 36.734375 "/><g clip-rule="nonzero" clip-path="url(#3d4401b0dd)"><path style=" stroke:none;fill-rule:nonzero;fill:#1b263b;fill-opacity:1;" d="M 194.988281 274.652344 L 194.988281 283.351562 C 194.988281 287.546875 191.585938 290.949219 187.386719 290.949219 C 183.191406 290.949219 179.789062 287.546875 179.789062 283.351562 L 179.789062 275.375 C 173.683594 274.648438 166.808594 272.609375 160.699219 269.320312 C 155.886719 266.726562 154.277344 260.597656 157.242188 256.003906 C 159.917969 251.855469 165.359375 250.496094 169.660156 252.910156 C 174.738281 255.757812 179.5625 257.203125 184.589844 257.203125 C 193.421875 257.203125 197.304688 253.539062 197.304688 246.445312 C 197.304688 230.417969 156.179688 230.707031 156.179688 202.59375 C 156.179688 187.328125 165.113281 176.742188 179.789062 173.824219 L 179.789062 165.339844 C 179.789062 161.140625 183.191406 157.738281 187.386719 157.738281 C 191.585938 157.738281 194.988281 161.140625 194.988281 165.339844 L 194.988281 173.496094 C 201.070312 174.417969 206.15625 176.621094 210.574219 179.671875 C 214.984375 182.714844 215.726562 188.941406 212.203125 192.976562 C 209.292969 196.3125 204.402344 197.019531 200.640625 194.691406 C 197.234375 192.582031 193.792969 191.492188 189.671875 191.492188 C 182.175781 191.492188 178.109375 194.511719 178.109375 201.511719 C 178.109375 216.367188 219.234375 215.070312 219.234375 244.851562 C 219.234375 259.785156 210.976562 271.265625 194.988281 274.652344 Z M 230.714844 118.265625 C 217.820312 110.246094 202.441406 107.375 187.5 107.175781 C 172.554688 107.375 157.164062 110.246094 144.269531 118.265625 C 136.25 123.257812 127.691406 130.703125 119.253906 139.878906 C 83.46875 178.742188 49.878906 248.511719 69.417969 292.71875 C 72.277344 299.226562 76.296875 305.167969 81.621094 310.386719 C 84.777344 313.480469 88.253906 316.234375 92.011719 318.667969 C 116.164062 334.445312 150.535156 341.515625 187.5 341.515625 C 223.625 341.515625 258.84375 334.445312 282.984375 318.667969 C 286.734375 316.226562 290.210938 313.480469 293.363281 310.386719 C 298.6875 305.167969 302.707031 299.226562 305.570312 292.71875 C 325.105469 248.511719 291.515625 178.742188 255.734375 139.878906 C 247.296875 130.703125 238.734375 123.257812 230.714844 118.265625 "/></g></g></svg>