<svg xmlns="http://www.w3.org/2000/svg" xmlns:xlink="http://www.w3.org/1999/xlink" width="500" zoomAndPan="magnify" viewBox="0 0 375 374.999991" height="500" preserveAspectRatio="xMidYMid meet" version="1.2"><defs><clipPath id="c3a7008b90"><path d="M 62 58 L 310 58 L 310 324.375 L 62 324.375 Z M 62 58 "/></clipPath></defs><g id="baee61291c"><g clip-rule="nonzero" clip-path="url(#c3a7008b90)"><path style=" stroke:none;fill-rule:nonzero;fill:#1b263b;fill-opacity:1;" d="M 282.226562 243.757812 C 266.175781 230.027344 249.886719 221.714844 234.03125 235.421875 L 224.566406 243.707031 C 217.640625 249.71875 204.761719 277.820312 154.96875 220.542969 C 105.1875 163.335938 134.8125 154.429688 141.75 148.46875 L 151.269531 140.171875 C 167.039062 126.433594 161.085938 109.136719 149.714844 91.335938 L 142.847656 80.550781 C 131.421875 62.789062 118.980469 51.125 103.167969 64.84375 L 94.625 72.308594 C 87.632812 77.398438 68.097656 93.949219 63.359375 125.386719 C 57.65625 163.109375 75.648438 206.304688 116.863281 253.703125 C 158.027344 301.117188 198.332031 324.933594 236.511719 324.519531 C 268.238281 324.179688 287.402344 307.152344 293.394531 300.960938 L 301.96875 293.488281 C 317.742188 279.777344 307.941406 265.824219 291.878906 252.0625 Z M 282.226562 243.757812 "/></g></g></svg>