<svg xmlns="http://www.w3.org/2000/svg" xmlns:xlink="http://www.w3.org/1999/xlink" width="500" zoomAndPan="magnify" viewBox="0 0 375 374.999991" height="500" preserveAspectRatio="xMidYMid meet" version="1.2"><defs><clipPath id="832e5ed64b"><path d="M 54.816406 38 L 320.316406 38 L 320.316406 287 L 54.816406 287 Z M 54.816406 38 "/></clipPath></defs><g id="3ae43d5a18"><g clip-rule="nonzero" clip-path="url(#832e5ed64b)"><path style=" stroke:none;fill-rule:nonzero;fill:#ffffff;fill-opacity:1;" d="M 187.496094 38.050781 C 114.316406 38.050781 54.816406 97.574219 54.816406 170.730469 C 54.816406 220.773438 82.660156 264.382812 123.667969 286.988281 L 123.667969 268.878906 C 91.605469 247.9375 70.304688 211.804688 70.304688 170.730469 C 70.304688 106.117188 122.878906 53.539062 187.496094 53.539062 C 252.109375 53.539062 304.6875 106.117188 304.6875 170.730469 C 304.6875 211.101562 284.148438 246.785156 252.984375 267.878906 L 252.984375 285.984375 C 293.054688 263.125 320.175781 220.070312 320.175781 170.730469 C 320.175781 97.574219 260.671875 38.050781 187.496094 38.050781 Z M 187.496094 38.050781 "/></g><path style=" stroke:none;fill-rule:nonzero;fill:#ffffff;fill-opacity:1;" d="M 125.414062 147.808594 L 251.300781 147.808594 L 251.300781 162.53125 L 125.414062 162.53125 Z M 125.414062 147.808594 "/><path style=" stroke:none;fill-rule:nonzero;fill:#ffffff;fill-opacity:1;" d="M 108.585938 120.988281 L 268.128906 120.988281 L 268.128906 135.707031 L 108.585938 135.707031 Z M 108.585938 120.988281 "/><path style=" stroke:none;fill-rule:nonzero;fill:#ffffff;fill-opacity:1;" d="M 151.683594 174.589844 L 151.683594 307.738281 L 137.6875 293.71875 L 137.6875 174.589844 Z M 151.683594 174.589844 "/><path style=" stroke:none;fill-rule:nonzero;fill:#ffffff;fill-opacity:1;" d="M 238.964844 174.589844 L 238.964844 293.847656 L 224.945312 307.84375 L 224.945312 174.589844 Z M 238.964844 174.589844 "/><path style=" stroke:none;fill-rule:nonzero;fill:#ffffff;fill-opacity:1;" d="M 209.863281 174.714844 L 209.863281 322.949219 L 195.867188 336.945312 L 195.867188 188.710938 L 180.785156 188.710938 L 180.785156 336.816406 L 166.789062 322.820312 L 166.789062 174.714844 Z M 209.863281 174.714844 "/></g></svg>